<?xml version="1.0" encoding="UTF-8" standalone="no"?>
<!DOCTYPE svg PUBLIC "-//W3C//DTD SVG 1.1//EN"
 "http://www.w3.org/Graphics/SVG/1.1/DTD/svg11.dtd">
<!-- Generated by graphviz version 2.40.1 (20161225.0304)
 -->
<!-- Title: dependencies Pages: 1 -->
<svg width="504pt" height="284pt"
 viewBox="0.00 0.00 504.00 284.00" xmlns="http://www.w3.org/2000/svg" xmlns:xlink="http://www.w3.org/1999/xlink">
<g id="graph0" class="graph" transform="scale(1 1) rotate(0) translate(4 280)">
<title>dependencies</title>
<polygon fill="#ffffff" stroke="transparent" points="-4,4 -4,-280 500,-280 500,4 -4,4"/>
<text text-anchor="start" x="227.0091" y="-42.4" font-family="sans-serif" font-weight="bold" font-size="14.00" fill="#000000">Legend</text>
<polygon fill="#ffffb3" stroke="transparent" points="14,-10 14,-30 34,-30 34,-10 14,-10"/>
<text text-anchor="start" x="37.629" y="-15.4" font-family="sans-serif" font-size="14.00" fill="#000000"> &#160;Declarations</text>
<polygon fill="#8dd3c7" stroke="transparent" points="127,-10 127,-30 147,-30 147,-10 127,-10"/>
<text text-anchor="start" x="150.7251" y="-15.4" font-family="sans-serif" font-size="14.00" fill="#000000"> &#160;Module</text>
<polygon fill="#80b1d3" stroke="transparent" points="213,-10 213,-30 233,-30 233,-10 213,-10"/>
<text text-anchor="start" x="236.7812" y="-15.4" font-family="sans-serif" font-size="14.00" fill="#000000"> &#160;Bootstrap</text>
<polygon fill="#fdb462" stroke="transparent" points="310,-10 310,-30 330,-30 330,-10 310,-10"/>
<text text-anchor="start" x="333.6732" y="-15.4" font-family="sans-serif" font-size="14.00" fill="#000000"> &#160;Providers</text>
<polygon fill="#fb8072" stroke="transparent" points="406,-10 406,-30 426,-30 426,-10 406,-10"/>
<text text-anchor="start" x="429.7258" y="-15.4" font-family="sans-serif" font-size="14.00" fill="#000000"> &#160;Exports</text>
<g id="clust1" class="cluster">
<title>cluster_AngularServiceBotModule</title>
<polygon fill="none" stroke="#000000" stroke-dasharray="1,5" points="10,-70 10,-268 486,-268 486,-70 10,-70"/>
</g>
<g id="clust2" class="cluster">
<title>cluster_AngularServiceBotModule_declarations</title>
<polygon fill="none" stroke="#000000" points="272,-78 272,-130 478,-130 478,-78 272,-78"/>
</g>
<g id="clust5" class="cluster">
<title>cluster_AngularServiceBotModule_exports</title>
<polygon fill="none" stroke="#000000" points="153,-208 153,-260 361,-260 361,-208 153,-208"/>
</g>
<g id="clust7" class="cluster">
<title>cluster_AngularServiceBotModule_providers</title>
<polygon fill="none" stroke="#000000" points="18,-78 18,-130 264,-130 264,-78 18,-78"/>
</g>
<!-- AngularServiceBotComponent -->
<g id="node1" class="node">
<title>AngularServiceBotComponent</title>
<polygon fill="#ffffb3" stroke="#000000" points="469.91,-122 280.09,-122 280.09,-86 469.91,-86 469.91,-122"/>
<text text-anchor="middle" x="375" y="-99.8" font-family="Times,serif" font-size="14.00" fill="#000000">AngularServiceBotComponent</text>
</g>
<!-- AngularServiceBotModule -->
<g id="node2" class="node">
<title>AngularServiceBotModule</title>
<polygon fill="#8dd3c7" stroke="#000000" points="340.6274,-187 337.6274,-191 316.6274,-191 313.6274,-187 173.3726,-187 173.3726,-151 340.6274,-151 340.6274,-187"/>
<text text-anchor="middle" x="257" y="-164.8" font-family="Times,serif" font-size="14.00" fill="#000000">AngularServiceBotModule</text>
</g>
<!-- AngularServiceBotComponent&#45;&gt;AngularServiceBotModule -->
<g id="edge1" class="edge">
<title>AngularServiceBotComponent&#45;&gt;AngularServiceBotModule</title>
<path fill="none" stroke="#000000" d="M310.5544,-122.1061C310.5544,-122.1061 310.5544,-140.991 310.5544,-140.991"/>
<polygon fill="#000000" stroke="#000000" points="307.0544,-140.9909 310.5544,-150.991 314.0544,-140.991 307.0544,-140.9909"/>
</g>
<!-- AngularServiceBotComponent  -->
<g id="node3" class="node">
<title>AngularServiceBotComponent </title>
<polygon fill="#fb8072" stroke="#000000" points="353.4096,-252 160.5904,-252 160.5904,-216 353.4096,-216 353.4096,-252"/>
<text text-anchor="middle" x="257" y="-229.8" font-family="Times,serif" font-size="14.00" fill="#000000">AngularServiceBotComponent </text>
</g>
<!-- AngularServiceBotModule&#45;&gt;AngularServiceBotComponent  -->
<g id="edge2" class="edge">
<title>AngularServiceBotModule&#45;&gt;AngularServiceBotComponent </title>
<path fill="none" stroke="#000000" stroke-dasharray="5,2" d="M257,-187.1061C257,-187.1061 257,-205.991 257,-205.991"/>
<polygon fill="#000000" stroke="#000000" points="253.5001,-205.9909 257,-215.991 260.5001,-205.991 253.5001,-205.9909"/>
</g>
<!-- AngularServiceBotService -->
<g id="node4" class="node">
<title>AngularServiceBotService</title>
<ellipse fill="#fdb462" stroke="#000000" cx="141" cy="-104" rx="114.5832" ry="18"/>
<text text-anchor="middle" x="141" y="-99.8" font-family="Times,serif" font-size="14.00" fill="#000000">AngularServiceBotService</text>
</g>
<!-- AngularServiceBotService&#45;&gt;AngularServiceBotModule -->
<g id="edge3" class="edge">
<title>AngularServiceBotService&#45;&gt;AngularServiceBotModule</title>
<path fill="none" stroke="#000000" d="M214.364,-118.104C214.364,-118.104 214.364,-140.7209 214.364,-140.7209"/>
<polygon fill="#000000" stroke="#000000" points="210.8641,-140.7209 214.364,-150.7209 217.8641,-140.7209 210.8641,-140.7209"/>
</g>
</g>
</svg>
